<svg xmlns="http://www.w3.org/2000/svg" width="84" height="13" fill="none"  xmlns:v="https://vecta.io/nano"><path d="M.326 12.589V.258h1.48v5.461h5.25V.258h1.48v12.332h-1.48V7.093h-5.25v5.496H.326zm19.096-3.946h-7.047c.035.881.317 1.55.81 2.079s1.198.775 2.114.775c.423 0 .775-.035 1.092-.141s.564-.211.775-.387.388-.352.529-.564.247-.458.317-.705l1.304.352c-.247.81-.705 1.48-1.374 1.973-.669.528-1.55.775-2.678.775-.634 0-1.198-.106-1.726-.317s-.987-.529-1.339-.916c-.387-.388-.669-.881-.881-1.444a5.13 5.13 0 0 1-.317-1.832v-.423a4.51 4.51 0 0 1 .317-1.691c.211-.528.529-.987.916-1.374s.846-.669 1.374-.916A4.51 4.51 0 0 1 15.3 3.57c.705 0 1.339.141 1.867.388.529.282.951.599 1.304.987s.599.81.74 1.268c.176.458.247.881.247 1.268v1.163h-.035zM15.3 4.909a3.73 3.73 0 0 0-1.092.176c-.317.141-.634.282-.881.529-.247.211-.458.493-.634.775-.141.282-.247.634-.317.987h5.637c-.035-.388-.106-.705-.282-1.022-.141-.317-.352-.564-.634-.775-.247-.211-.529-.388-.881-.493-.247-.106-.564-.176-.916-.176zm10.852 2.572l2.185-3.629h1.585L27.35 8.009v.211l2.783 4.369h-1.621l-2.396-3.84H25.8l-2.325 3.84h-1.621l2.783-4.369v-.211l-2.572-4.158h1.585l2.22 3.629h.282zm15.009.634v.211c0 .74-.106 1.374-.352 1.938a4.51 4.51 0 0 1-.951 1.409c-.388.388-.881.67-1.409.881s-1.092.282-1.656.282c-.599 0-1.127-.106-1.691-.282s-.986-.493-1.374-.881-.705-.846-.951-1.409-.352-1.198-.352-1.938v-.211c0-.705.106-1.339.352-1.903s.564-1.022.987-1.409c.388-.388.881-.669 1.409-.881s1.092-.282 1.656-.282a5.27 5.27 0 0 1 1.656.282c.528.176.986.493 1.409.881.388.388.74.846.987 1.409.176.564.282 1.198.282 1.903zm-4.369 3.418c.423 0 .81-.071 1.163-.211s.669-.352.951-.634a2.78 2.78 0 0 0 .634-1.022 3.94 3.94 0 0 0 .247-1.339v-.211c0-.458-.07-.916-.247-1.304-.141-.388-.352-.74-.634-1.022s-.599-.493-.951-.634-.74-.247-1.163-.247-.81.07-1.163.247-.669.388-.951.669-.493.634-.634 1.022-.247.81-.247 1.304v.211c0 .493.07.951.247 1.339a2.78 2.78 0 0 0 .634 1.022c.282.282.599.493.951.634.352.106.74.176 1.163.176zm8.738-5.426c0 .423.176.74.529.987.352.211 1.022.388 1.973.423 1.022.07 1.797.317 2.325.74s.81.987.81 1.762v.106c0 .423-.07.81-.247 1.127-.176.352-.423.634-.705.846a2.87 2.87 0 0 1-1.092.528c-.423.106-.881.176-1.409.176-.669 0-1.268-.106-1.762-.282s-.881-.423-1.198-.705-.564-.634-.74-1.022-.247-.775-.282-1.163l1.304-.317c.07.669.317 1.198.775 1.621s1.057.599 1.832.599c.634 0 1.163-.141 1.55-.388s.599-.599.599-1.057c0-.493-.211-.846-.599-1.057s-1.022-.352-1.867-.423c-1.022-.07-1.797-.317-2.325-.705s-.81-.987-.81-1.726v-.106c0-.423.07-.775.282-1.092.176-.317.423-.564.705-.775s.634-.388 1.022-.493.775-.141 1.163-.141c.564 0 1.092.07 1.515.247s.81.352 1.092.634c.282.247.529.529.669.881.141.317.247.669.317.987l-1.304.317c-.071-.564-.282-.987-.669-1.339-.388-.317-.916-.458-1.55-.458-.247 0-.493.035-.705.07-.247.07-.423.141-.599.247a1.5 1.5 0 0 0-.423.388c-.141.176-.176.352-.176.564zm17.194 2.008v.211c0 .74-.106 1.374-.352 1.938a4.51 4.51 0 0 1-.951 1.409c-.387.388-.881.67-1.409.881s-1.092.282-1.656.282c-.599 0-1.127-.106-1.691-.282s-.986-.493-1.374-.881a4.51 4.51 0 0 1-.951-1.409c-.247-.564-.352-1.198-.352-1.938v-.211c0-.705.106-1.339.352-1.903s.564-1.022.986-1.409a4.52 4.52 0 0 1 1.409-.881c.529-.211 1.092-.282 1.656-.282s1.127.106 1.656.282.986.493 1.409.881.74.846.987 1.409a6.35 6.35 0 0 1 .282 1.903zm-4.369 3.418c.423 0 .81-.071 1.163-.211s.669-.352.951-.634.493-.634.634-1.022a3.94 3.94 0 0 0 .247-1.339v-.211c0-.458-.07-.916-.247-1.304-.141-.388-.352-.74-.634-1.022s-.599-.493-.951-.669c-.352-.141-.74-.247-1.163-.247s-.81.07-1.163.247-.669.388-.951.669-.493.634-.634 1.022-.247.81-.247 1.304v.211c0 .493.07.951.247 1.339a2.78 2.78 0 0 0 .634 1.022c.282.282.599.493.951.634s.74.211 1.163.211zM65.19 5.12V3.852h2.678v-2.22c0-.388.141-.74.388-.987s.564-.388.986-.388h3.453v1.268h-2.96c-.317 0-.458.176-.458.529v1.797h3.629V5.12h-3.664v7.469h-1.374V5.12H65.19zm10.57 0V3.852h2.748V.258h1.374v3.594h3.382V5.12h-3.382v5.673c0 .352.141.528.458.528h2.466v1.268h-2.959c-.388 0-.74-.141-.987-.388s-.387-.599-.387-.987V5.12H75.76z" fill="#2d5ed2"/></svg>